<svg xmlns="http://www.w3.org/2000/svg" viewBox="0 0 32 32"><path fill="currentColor" d="M4.08 5A3.1 3.1 0 0 0 1 8.08v17.93c0 .76.17 1.58.5 2.28l.08.18A4.8 4.8 0 0 0 6.08 31H24a3 3 0 0 0 2.89-2.15l3.96-11.82v-.01A3.1 3.1 0 0 0 28 13v-1c0-1.7-1.3-3-3-3h-8.17a1 1 0 0 1-.76-.32L13.63 6.2h-.01A4 4 0 0 0 10.76 5zM26 13H10.89a4.7 4.7 0 0 0-4.4 3.1l-.01.01c-1.86 5.33-2.9 8.16-3.48 9.66V8.08C3 7.48 3.48 7 4.08 7h6.68a2 2 0 0 1 1.44.6l2.45 2.49h.01a3 3 0 0 0 2.17.91H25c.6 0 1 .4 1 1zM4.45 28.66a3 3 0 0 1-.43-.3l.04-.06q.07-.1.13-.23.13-.23.31-.68c.51-1.21 1.57-4.04 3.87-10.62A2.7 2.7 0 0 1 10.89 15H27.9a1.1 1.1 0 0 1 1.04 1.4l-3.96 11.83v.02l-.01.01a1 1 0 0 1-.99.74H5.98a3 3 0 0 1-1.53-.34"/></svg>